<svg id="Capa_1" data-name="Capa 1" xmlns="http://www.w3.org/2000/svg" xmlns:xlink="http://www.w3.org/1999/xlink" viewBox="0 0 645.59 172.49"><defs><style>.cls-1{fill:#00d411;}.cls-2,.cls-4{fill:none;stroke:#211915;stroke-miterlimit:10;}.cls-3{fill:url(#Degradado_sin_nombre_34);}.cls-4{stroke-width:0.25px;}.cls-5{fill:#fff;}.cls-6{fill:url(#Degradado_sin_nombre_34-2);}.cls-7{fill:url(#Degradado_sin_nombre_34-3);}.cls-8{fill:url(#Degradado_sin_nombre_34-4);}</style><linearGradient id="Degradado_sin_nombre_34" x1="98.1" y1="289.89" x2="1396.31" y2="337.15" gradientUnits="userSpaceOnUse"><stop offset="0" stop-color="#00d411"/><stop offset="1" stop-color="#00940d"/></linearGradient><linearGradient id="Degradado_sin_nombre_34-2" x1="606.85" y1="314.7" x2="682.93" y2="314.7" xlink:href="#Degradado_sin_nombre_34"/><linearGradient id="Degradado_sin_nombre_34-3" x1="97.06" y1="338.07" x2="1371.12" y2="384.45" xlink:href="#Degradado_sin_nombre_34"/><linearGradient id="Degradado_sin_nombre_34-4" x1="151.83" y1="309.26" x2="1175.71" y2="346.53" xlink:href="#Degradado_sin_nombre_34"/></defs><title>title</title><path class="cls-1" d="M480.91,233.08c-5.71.47-10.35,5.6-10.35,13A16.43,16.43,0,0,0,473.8,256c-.51,6.13-1.16,13.83-1.94,23-1.31-.25-3.46-.69-6.44-1.48s-7.53-2.19-13.49-3.84L454,249.6c.42-4.92-1.2-8.91-4.64-11.46s-7.26-3.41-11-2-5.92,5.23-6.35,10.42c-.56,6.8-1.31,15.9-2.26,27.48s-1.87,22.85-2.76,33.79-1.48,18.23-1.78,21.93c-.43,5.24,1.09,7.9,4.65,8.94a12.14,12.14,0,0,0,1.19.29c0,.11,0,.21,0,.32,0,2.77,1,4.78,2.3,4.6s2.1-2.12,2.26-4.56a18.63,18.63,0,0,0,5.26-1c3.72-1.21,5.9-3.89,6.31-8.74q.38-4.47,1.21-14.28a2.41,2.41,0,0,0,1.05.52c2.08.34,3.77-2.9,3.77-7.34,0-4.23-1.55-8-3.51-8.6q.57-6.63,1.16-13.65c3.23.85,6.69,1.9,10.39,3s6.81,1.88,9.55,2.43c-.89,10.52-1.71,20.19-2.44,28.8l-1.46,17.2c-.32,3.76.65,6.67,2.94,8.38a7,7,0,0,0,7.29,1c2.5-1.11,3.9-3.69,4.21-7.41.41-4.94,1.13-13.6,2.17-26.18s2.07-25,3.11-37.65c.83-10.19,1.43-17.47,1.78-21.77a20.38,20.38,0,0,0,2.88-10.22C491.27,236.5,486.63,232.65,480.91,233.08ZM437.86,291a3.16,3.16,0,0,1-1.14,2.12,3.05,3.05,0,0,1-2.35,1,2.68,2.68,0,0,1-2.18-.82,2.46,2.46,0,0,1-.66-2.09c.11-1.3.21-2.59.32-3.88a3.47,3.47,0,0,1,1-2.26,3.15,3.15,0,0,1,2.34-1.06,2.38,2.38,0,0,1,2.19,1,2.9,2.9,0,0,1,.78,2.2C438.07,288.4,438,289.67,437.86,291ZM439,277.8a3.53,3.53,0,0,1-3.49,3.11,3.29,3.29,0,0,1-2.19-.89,2.79,2.79,0,0,1-.65-2.23q1.26-15.26,2.52-30.42a3.13,3.13,0,0,1,1-2.16,2.94,2.94,0,0,1,2.35-.86,2.64,2.64,0,0,1,2.19,1.17,3.12,3.12,0,0,1,.77,2.26Q440.22,262.75,439,277.8Z" transform="translate(-111.07 -222.38)"/><path class="cls-2" d="M480.91,233.08c-5.71.47-10.35,5.6-10.35,13A16.43,16.43,0,0,0,473.8,256c-.51,6.13-1.16,13.83-1.94,23-1.31-.25-3.46-.69-6.44-1.48s-7.53-2.19-13.49-3.84L454,249.6c.42-4.92-1.2-8.91-4.64-11.46s-7.26-3.41-11-2-5.92,5.23-6.35,10.42c-.56,6.8-1.31,15.9-2.26,27.48s-1.87,22.85-2.76,33.79-1.48,18.23-1.78,21.93c-.43,5.24,1.09,7.9,4.65,8.94a12.14,12.14,0,0,0,1.19.29c0,.11,0,.21,0,.32,0,2.77,1,4.78,2.3,4.6s2.1-2.12,2.26-4.56a18.63,18.63,0,0,0,5.26-1c3.72-1.21,5.9-3.89,6.31-8.74q.38-4.47,1.21-14.28a2.41,2.41,0,0,0,1.05.52c2.08.34,3.77-2.9,3.77-7.34,0-4.23-1.55-8-3.51-8.6q.57-6.63,1.16-13.65c3.23.85,6.69,1.9,10.39,3s6.81,1.88,9.55,2.43c-.89,10.52-1.71,20.19-2.44,28.8l-1.46,17.2c-.32,3.76.65,6.67,2.94,8.38a7,7,0,0,0,7.29,1c2.5-1.11,3.9-3.69,4.21-7.41.41-4.94,1.13-13.6,2.17-26.18s2.07-25,3.11-37.65c.83-10.19,1.43-17.47,1.78-21.77a20.38,20.38,0,0,0,2.88-10.22C491.27,236.5,486.63,232.65,480.91,233.08ZM437.86,291a3.16,3.16,0,0,1-1.14,2.12,3.05,3.05,0,0,1-2.35,1,2.68,2.68,0,0,1-2.18-.82,2.46,2.46,0,0,1-.66-2.09c.11-1.3.21-2.59.32-3.88a3.47,3.47,0,0,1,1-2.26,3.15,3.15,0,0,1,2.34-1.06,2.38,2.38,0,0,1,2.19,1,2.9,2.9,0,0,1,.78,2.2C438.07,288.4,438,289.67,437.86,291ZM439,277.8a3.53,3.53,0,0,1-3.49,3.11,3.29,3.29,0,0,1-2.19-.89,2.79,2.79,0,0,1-.65-2.23q1.26-15.26,2.52-30.42a3.13,3.13,0,0,1,1-2.16,2.94,2.94,0,0,1,2.35-.86,2.64,2.64,0,0,1,2.19,1.17,3.12,3.12,0,0,1,.77,2.26Q440.22,262.75,439,277.8Z" transform="translate(-111.07 -222.38)"/><path class="cls-3" d="M594.88,301.8c-5.18,3.57-9.46,6.6-15.33,5.67a13.11,13.11,0,0,1,1.19,2.62c.27,1.31-.83,4.67.34,8.86s4.39,8.21,5.77,13.21,2.83,9.64,4,13.67,2,6.58,2.26,7.72c1,3.68.52,6.42-1,8.2a4.94,4.94,0,0,1-6,1.16c-2.21-.91-4-3.39-5.29-7.12-.28-1.31-.93-3.37-1.8-6.37-1.53-5.78-4.11-12.93-7.71-25.68-1.84,10.75-3.25,16.29-4.08,21.12s-3.1,7.18-6.92,8a18.31,18.31,0,0,1-10.91-.51c-3.39-1.3-4.62-4.17-3.8-9.53.59-3.89,4.57-10.88,6.3-21.61s.71-22.84,2.57-34.29,3.32-20.29,4.41-26.89c.65-3.89,2.18-6.53,4.74-7.77a9.87,9.87,0,0,1,8-.26l3.9,1.47c2.61,1,5.08,5.31,8.77,7.14s7.87.75,11.38,2.77c3.53,1.85,3.36,6.74,5.44,9.95s5.65,4,4.79,9.54C604.49,292.45,599.94,298.26,594.88,301.8Zm-34,2.39a2.79,2.79,0,0,0,1.32-2c.28-1.63.55-3.26.82-4.88a3.26,3.26,0,0,0-.57-2.46,3.48,3.48,0,0,0-2.09-1.47,3.06,3.06,0,0,0-2.4.53,3.15,3.15,0,0,0-1.32,2.12c-.27,1.66-.55,3.33-.82,5a3,3,0,0,0,.57,2.37,3.35,3.35,0,0,0,4.49.78Zm2.66-15.85a2.66,2.66,0,0,0,1.32-1.93q2.08-12.33,4.16-24.52a3.74,3.74,0,0,0-2.69-4.06,2.89,2.89,0,0,0-2.38.14,3,3,0,0,0-1.31,1.95q-2.08,12.39-4.17,25a3.12,3.12,0,0,0,.58,2.41,3.57,3.57,0,0,0,2.09,1.41A3.31,3.31,0,0,0,563.51,288.34Zm24,4.66c3.66-1.16,5.72-4.16,6.45-8.54.68-4.18-.37-7.27-3.29-9.6a43.75,43.75,0,0,0-10.39-6.23c-.78,4.58-2.2,12.91-4.26,24.88A21.73,21.73,0,0,0,587.51,293Z" transform="translate(-111.07 -222.38)"/><path class="cls-2" d="M594.88,301.8c-5.18,3.57-9.46,6.6-15.33,5.67a13.11,13.11,0,0,1,1.19,2.62c.27,1.31-.83,4.67.34,8.86s4.39,8.21,5.77,13.21,2.83,9.64,4,13.67,2,6.58,2.26,7.72c1,3.68.52,6.42-1,8.2a4.94,4.94,0,0,1-6,1.16c-2.21-.91-4-3.39-5.29-7.12-.28-1.31-.93-3.37-1.8-6.37-1.53-5.78-4.11-12.93-7.71-25.68-1.84,10.75-3.25,16.29-4.08,21.12s-3.1,7.18-6.92,8a18.31,18.31,0,0,1-10.91-.51c-3.39-1.3-4.62-4.17-3.8-9.53.59-3.89,4.57-10.88,6.3-21.61s.71-22.84,2.57-34.29,3.32-20.29,4.41-26.89c.65-3.89,2.18-6.53,4.74-7.77a9.87,9.87,0,0,1,8-.26l3.9,1.47c2.61,1,5.08,5.31,8.77,7.14s7.87.75,11.38,2.77c3.53,1.85,3.36,6.74,5.44,9.95s5.65,4,4.79,9.54C604.49,292.45,599.94,298.26,594.88,301.8Zm-34,2.39a2.79,2.79,0,0,0,1.32-2c.28-1.63.55-3.26.82-4.88a3.26,3.26,0,0,0-.57-2.46,3.48,3.48,0,0,0-2.09-1.47,3.06,3.06,0,0,0-2.4.53,3.15,3.15,0,0,0-1.32,2.12c-.27,1.66-.55,3.33-.82,5a3,3,0,0,0,.57,2.37,3.35,3.35,0,0,0,4.49.78Zm2.66-15.85a2.66,2.66,0,0,0,1.32-1.93q2.08-12.33,4.16-24.52a3.74,3.74,0,0,0-2.69-4.06,2.89,2.89,0,0,0-2.38.14,3,3,0,0,0-1.31,1.95q-2.08,12.39-4.17,25a3.12,3.12,0,0,0,.58,2.41,3.57,3.57,0,0,0,2.09,1.41A3.31,3.31,0,0,0,563.51,288.34Zm24,4.66c3.66-1.16,5.72-4.16,6.45-8.54.68-4.18-.37-7.27-3.29-9.6a43.75,43.75,0,0,0-10.39-6.23c-.78,4.58-2.2,12.91-4.26,24.88A21.73,21.73,0,0,0,587.51,293Z" transform="translate(-111.07 -222.38)"/><path class="cls-1" d="M740.56,372.54c-.57-.41,1.61-22.05.55-21.76.38-1.95.77-3.95,1.17-6a126.23,126.23,0,0,0,1.84-37.81c-1.35-11.77-7.11-18.23-17.27-21.62-6.66-2.22-13,.54-18.81,8.66.38-1.58.67-2.82.88-3.72,1.1-4.62.06-8.34-3.18-11.27a12.89,12.89,0,0,0-10.58-3.89c-4,.49-6.49,3.36-7.61,8.25-1,4.44-2.69,11.81-5.07,22.36s-1,23.18-3.49,34.42-8.32,19.14-9.57,25.1c-1.15,5.4-.17,8.79,3.08,10.45a13.66,13.66,0,0,0,10.66.81c4-1,6.52-3.88,7.64-8.76,1.52-6.58,1.91-16.72,6-28.45s10.66-20.84,15.08-29.82,8.13-12.88,10.94-11.89c2.57.91,3.31,5.82,2.22,14.79a270.27,270.27,0,0,1-5.16,29.49c-2.39,10.67,2.13,20,.14,27.34-.72,3.07-5.21,7.92-5.61,9.6-1.07,4.51,2.89,5.41,6.17,8.2,3.18,2.62,1.2,3.88,5.17,3.66,2.24-.47,12.17-1.22,26.34-3.83C762,384.05,752.07,380.71,740.56,372.54ZM731,347.22c.5-2.18.89-4.41,1.4-6.6a3,3,0,0,1,1.32-2,3.12,3.12,0,0,1,2.44-.35,3.49,3.49,0,0,1,2,1.34,3.07,3.07,0,0,1,.43,2.43c-.39,2.25-.9,4.47-1.43,6.8a3,3,0,0,1-1.44,2,3,3,0,0,1-2.44.34,3.79,3.79,0,0,1-2-1.56A3,3,0,0,1,731,347.22Zm-5.75-52.37a4.13,4.13,0,0,1-.17-2.51,2.81,2.81,0,0,1,1.65-1.66,3.74,3.74,0,0,1,2.38,0c3.59,1.26,6.71,4.41,9.4,9.8q3.91,7.83,2.25,27.25a3.59,3.59,0,0,1-1.11,2.23,3.74,3.74,0,0,1-2.37.71l-.35-.08a2.88,2.88,0,0,1-1.92-1.34,3.14,3.14,0,0,1-.6-2.24c1.65-17.43-.74-27.34-7.3-30.46A4.34,4.34,0,0,1,725.25,294.85Z" transform="translate(-111.07 -222.38)"/><path class="cls-2" d="M740.56,372.54c-.57-.41,1.61-22.05.55-21.76.38-1.95.77-3.95,1.17-6a126.23,126.23,0,0,0,1.84-37.81c-1.35-11.77-7.11-18.23-17.27-21.62-6.66-2.22-13,.54-18.81,8.66.38-1.58.67-2.82.88-3.72,1.1-4.62.06-8.34-3.18-11.27a12.89,12.89,0,0,0-10.58-3.89c-4,.49-6.49,3.36-7.61,8.25-1,4.44-2.69,11.81-5.07,22.36s-1,23.18-3.49,34.42-8.32,19.14-9.57,25.1c-1.15,5.4-.17,8.79,3.08,10.45a13.66,13.66,0,0,0,10.66.81c4-1,6.52-3.88,7.64-8.76,1.52-6.58,1.91-16.72,6-28.45s10.66-20.84,15.08-29.82,8.13-12.88,10.94-11.89c2.57.91,3.31,5.82,2.22,14.79a270.27,270.27,0,0,1-5.16,29.49c-2.39,10.67,2.13,20,.14,27.34-.72,3.07-5.21,7.92-5.61,9.6-1.07,4.51,2.89,5.41,6.17,8.2,3.18,2.62,1.2,3.88,5.17,3.66,2.24-.47,12.17-1.22,26.34-3.83C762,384.05,752.07,380.71,740.56,372.54ZM731,347.22c.5-2.18.89-4.41,1.4-6.6a3,3,0,0,1,1.32-2,3.12,3.12,0,0,1,2.44-.35,3.49,3.49,0,0,1,2,1.34,3.07,3.07,0,0,1,.43,2.43c-.39,2.25-.9,4.47-1.43,6.8a3,3,0,0,1-1.44,2,3,3,0,0,1-2.44.34,3.79,3.79,0,0,1-2-1.56A3,3,0,0,1,731,347.22Zm-5.75-52.37a4.13,4.13,0,0,1-.17-2.51,2.81,2.81,0,0,1,1.65-1.66,3.74,3.74,0,0,1,2.38,0c3.59,1.26,6.71,4.41,9.4,9.8q3.91,7.83,2.25,27.25a3.59,3.59,0,0,1-1.11,2.23,3.74,3.74,0,0,1-2.37.71l-.35-.08a2.88,2.88,0,0,1-1.92-1.34,3.14,3.14,0,0,1-.6-2.24c1.65-17.43-.74-27.34-7.3-30.46A4.34,4.34,0,0,1,725.25,294.85Z" transform="translate(-111.07 -222.38)"/><path d="M445.65,315.69c0,3.57-3.54,6.9-7.92,6.3s-7.93-2.91-7.93-6.3c0-3.57,3.55-6.9,7.93-6.31S445.65,312.29,445.65,315.69Z" transform="translate(-111.07 -222.38)"/><path class="cls-4" d="M445.65,315.69c0,3.57-3.54,6.9-7.92,6.3s-7.93-2.91-7.93-6.3c0-3.57,3.55-6.9,7.93-6.31S445.65,312.29,445.65,315.69Z" transform="translate(-111.07 -222.38)"/><path class="cls-5" d="M440.18,315a2.26,2.26,0,0,1-2.65,2c-1.47-.19-2.66-.94-2.66-2a2.27,2.27,0,0,1,2.66-2C439,313.17,440.18,313.91,440.18,315Z" transform="translate(-111.07 -222.38)"/><path class="cls-4" d="M440.18,315a2.26,2.26,0,0,1-2.65,2c-1.47-.19-2.66-.94-2.66-2a2.27,2.27,0,0,1,2.66-2C439,313.17,440.18,313.91,440.18,315Z" transform="translate(-111.07 -222.38)"/><path d="M470.56,281.86c0,2.5,2.92,4.21,6.53,4.65s6.53-2,6.53-4.65-2.92-4.2-6.53-4.64S470.56,279.24,470.56,281.86Z" transform="translate(-111.07 -222.38)"/><path class="cls-4" d="M470.56,281.86c0,2.5,2.92,4.21,6.53,4.65s6.53-2,6.53-4.65-2.92-4.2-6.53-4.64S470.56,279.24,470.56,281.86Z" transform="translate(-111.07 -222.38)"/><path class="cls-5" d="M475.16,279.26c0,1.09,1.18,1.84,2.65,2a2.26,2.26,0,0,0,2.65-2c0-1.1-1.19-1.84-2.65-2A2.26,2.26,0,0,0,475.16,279.26Z" transform="translate(-111.07 -222.38)"/><path class="cls-4" d="M475.16,279.26c0,1.09,1.18,1.84,2.65,2a2.26,2.26,0,0,0,2.65-2c0-1.1-1.19-1.84-2.65-2A2.26,2.26,0,0,0,475.16,279.26Z" transform="translate(-111.07 -222.38)"/><path class="cls-1" d="M290.64,334.9c-1.68-1.33-4.35-1.18-8-.19a47.6,47.6,0,0,1-7.55,1.41,91.7,91.7,0,0,1-10.61.47c-1-5.6-2.49-14.26-4.49-25.73-.11-.61-.21-1.22-.32-1.83.37-3.85.59-8.37.59-13.26,0-14.48,9.65-19.71-4.19-27-.92-.5-5.3-10.56-5.86-13.7-.87-4.93-3.21-8.18-7.17-9.3s-7.51-.19-10.77,2.82a12.6,12.6,0,0,0-3.63,12c.8,4.18,2.15,11.13,4,21.16s6.81,20.29,8.81,31.45.63,19.76,1.63,25.32c.68,3.79,2.27,6.58,5,8.33a14.09,14.09,0,0,0,8.06,2.7l4.13,0c2.47,0,5.42.09,8.84,0a63.76,63.76,0,0,0,9.78-1,44.51,44.51,0,0,0,6-1.54c3.77-1.27,6.06-3.68,6.85-6.29S292.18,336.17,290.64,334.9Zm-52.18-50.35q-2.62-14.37-5.26-28.35a3.76,3.76,0,0,1,.54-2.52,4,4,0,0,1,2.07-1.72,2.92,2.92,0,0,1,2.41.26,3,3,0,0,1,1.35,2q2.63,14.43,5.26,29.16a3.13,3.13,0,0,1-.54,2.38,3.24,3.24,0,0,1-2.07,1.29,3.42,3.42,0,0,1-2.41-.5A3.07,3.07,0,0,1,238.46,284.55Zm8.37,15.4a3.08,3.08,0,0,1-2.07,1.19,3.47,3.47,0,0,1-2.41-.62,3.06,3.06,0,0,1-1.35-2.06l-.81-4.46a3.07,3.07,0,0,1,.56-2.31,2.76,2.76,0,0,1,2.07-1.35,2.8,2.8,0,0,1,2.41.64,3.3,3.3,0,0,1,1.33,2l.81,4.56A2.91,2.91,0,0,1,246.83,300Z" transform="translate(-111.07 -222.38)"/><path class="cls-2" d="M290.64,334.9c-1.68-1.33-4.35-1.18-8-.19a47.6,47.6,0,0,1-7.55,1.41,91.7,91.7,0,0,1-10.61.47c-1-5.6-2.49-14.26-4.49-25.73-.11-.61-.21-1.22-.32-1.83.37-3.85.59-8.37.59-13.26,0-14.48,9.65-19.71-4.19-27-.92-.5-5.3-10.56-5.86-13.7-.87-4.93-3.21-8.18-7.17-9.3s-7.51-.19-10.77,2.82a12.6,12.6,0,0,0-3.63,12c.8,4.18,2.15,11.13,4,21.16s6.81,20.29,8.81,31.45.63,19.76,1.63,25.32c.68,3.79,2.27,6.58,5,8.33a14.09,14.09,0,0,0,8.06,2.7l4.13,0c2.47,0,5.42.09,8.84,0a63.76,63.76,0,0,0,9.78-1,44.51,44.51,0,0,0,6-1.54c3.77-1.27,6.06-3.68,6.85-6.29S292.18,336.17,290.64,334.9Zm-52.18-50.35q-2.62-14.37-5.26-28.35a3.76,3.76,0,0,1,.54-2.52,4,4,0,0,1,2.07-1.72,2.92,2.92,0,0,1,2.41.26,3,3,0,0,1,1.35,2q2.63,14.43,5.26,29.16a3.13,3.13,0,0,1-.54,2.38,3.24,3.24,0,0,1-2.07,1.29,3.42,3.42,0,0,1-2.41-.5A3.07,3.07,0,0,1,238.46,284.55Zm8.37,15.4a3.08,3.08,0,0,1-2.07,1.19,3.47,3.47,0,0,1-2.41-.62,3.06,3.06,0,0,1-1.35-2.06l-.81-4.46a3.07,3.07,0,0,1,.56-2.31,2.76,2.76,0,0,1,2.07-1.35,2.8,2.8,0,0,1,2.41.64,3.3,3.3,0,0,1,1.33,2l.81,4.56A2.91,2.91,0,0,1,246.83,300Z" transform="translate(-111.07 -222.38)"/><path class="cls-1" d="M364.58,331.43c0-.47,0-1.57-.05-3,0-6.72-.65-17.2-2-31.31S357,274.54,352.52,261.8c-4.46-12.9-4.83-28.66-14.63-29.61-13.76-2.29-29.27,8.54-35.74,25.47-6.34,16.28-8.71,41.28-6.89,72.19.35,5.87,2.36,8.68,6,9.14a16.63,16.63,0,0,0,10.5-1.81c3.48-1.94,5.11-4.63,4.89-8.5-.55-9.51-.32-22.35.79-38.34,4.43.32,9.33,1.11,14.59,1.91a102.75,102.75,0,0,0,14.47,1.38c1,8.17,1.63,15.83,2.15,22.89s.72,12.57.94,16.28c.05,1,.09,1.68.13,2.27.12,2.24-5,8.81-5,12.28,0,4.45,4.45,8.72,9.93,8.13s9.93-6.19,9.93-10.68C364.59,342.05,364.74,334.23,364.58,331.43ZM305.22,289.7a4.21,4.21,0,0,1-1,2.32,4.33,4.33,0,0,1-2.1,1.27l-.24.06a2.6,2.6,0,0,1-2.22-.59,1.94,1.94,0,0,1-.85-2c0-1.57,0-3.26.2-4.87a5.09,5.09,0,0,1,1.08-2.5,3.89,3.89,0,0,1,2.35-1.21,3,3,0,0,1,2.23.88,2.79,2.79,0,0,1,.73,2.17C305.29,286.81,305.25,288.25,305.22,289.7Zm9.65-34.56a56.76,56.76,0,0,0-8.24,21.41,4.11,4.11,0,0,1-1.1,1.94,4.3,4.3,0,0,1-1.88.92,1.46,1.46,0,0,1-.72,0,2.72,2.72,0,0,1-2.12-.92,3.57,3.57,0,0,1-.49-2.26,72.47,72.47,0,0,1,10.06-26.41c5-7.69,11.68-10.68,20.17-9.31l.36.05a3.88,3.88,0,0,1,2.33,1.31,3.7,3.7,0,0,1,1,2.42,2.58,2.58,0,0,1-3,2.67C324.35,246.16,318.92,248.79,314.87,255.14ZM319,277.75a77.76,77.76,0,0,1,5.21-19.19c2.33-5,5.41-7.11,9.12-6.57,2.75.41,4.93,3.31,6.79,8.77a117.38,117.38,0,0,1,4.6,20.11C338,280.76,329.42,278.88,319,277.75Z" transform="translate(-111.07 -222.38)"/><path class="cls-2" d="M364.58,331.43c0-.47,0-1.57-.05-3,0-6.72-.65-17.2-2-31.31S357,274.54,352.52,261.8c-4.46-12.9-4.83-28.66-14.63-29.61-13.76-2.29-29.27,8.54-35.74,25.47-6.34,16.28-8.71,41.28-6.89,72.19.35,5.87,2.36,8.68,6,9.14a16.63,16.63,0,0,0,10.5-1.81c3.48-1.94,5.11-4.63,4.89-8.5-.55-9.51-.32-22.35.79-38.34,4.43.32,9.33,1.11,14.59,1.91a102.75,102.75,0,0,0,14.47,1.38c1,8.17,1.63,15.83,2.15,22.89s.72,12.57.94,16.28c.05,1,.09,1.68.13,2.27.12,2.24-5,8.81-5,12.28,0,4.45,4.45,8.72,9.93,8.13s9.93-6.19,9.93-10.68C364.59,342.05,364.74,334.23,364.58,331.43ZM305.22,289.7a4.21,4.21,0,0,1-1,2.32,4.33,4.33,0,0,1-2.1,1.27l-.24.06a2.6,2.6,0,0,1-2.22-.59,1.94,1.94,0,0,1-.85-2c0-1.57,0-3.26.2-4.87a5.09,5.09,0,0,1,1.08-2.5,3.89,3.89,0,0,1,2.35-1.21,3,3,0,0,1,2.23.88,2.79,2.79,0,0,1,.73,2.17C305.29,286.81,305.25,288.25,305.22,289.7Zm9.65-34.56a56.76,56.76,0,0,0-8.24,21.41,4.11,4.11,0,0,1-1.1,1.94,4.3,4.3,0,0,1-1.88.92,1.46,1.46,0,0,1-.72,0,2.72,2.72,0,0,1-2.12-.92,3.57,3.57,0,0,1-.49-2.26,72.47,72.47,0,0,1,10.06-26.41c5-7.69,11.68-10.68,20.17-9.31l.36.05a3.88,3.88,0,0,1,2.33,1.31,3.7,3.7,0,0,1,1,2.42,2.58,2.58,0,0,1-3,2.67C324.35,246.16,318.92,248.79,314.87,255.14ZM319,277.75a77.76,77.76,0,0,1,5.21-19.19c2.33-5,5.41-7.11,9.12-6.57,2.75.41,4.93,3.31,6.79,8.77a117.38,117.38,0,0,1,4.6,20.11C338,280.76,329.42,278.88,319,277.75Z" transform="translate(-111.07 -222.38)"/><path class="cls-1" d="M414.53,227.28c-5,2.89-5.06,4.8-10.6,10.14-11.78-3.09-21.36-6.45-26,2.05-4.89,8.7-5.27,23.19-3.6,31.69,1.55,8.7,5.79,14.64,12.72,20.57,5.76,5,9.23,10.82,10.4,16.37,1.29,5.75.92,10.32-1,13.74s-4.59,4.45-8.29,3.52c-3.1-1.27-4.73-2.87-5-5.42a12.48,12.48,0,0,1,1.88-7.51c1.39-2.48,3-3.9,4.82-4.48,2.43-.66,3.18-1.76,2.26-3.43s-1.3-5.68-3.8-6.77-6.29,2-8.61,3.83c-3.92,3.33-6.67,8.5-8.38,14.6s-1.48,10.94.68,14.59,6.63,4.87,13.79,6.56c16.9,3.37,28.38,3.46,33-12.93,3-10.2,1.4-22.53-3.26-30.69a8.71,8.71,0,0,0,1.12-4.31c0-3.85-2.35-6.76-5.25-7a4.22,4.22,0,0,0-3.17,1.06c-1.05-1.27-2.14-2.57-3.34-3.91a26.68,26.68,0,0,1-7-14.21c-.82-5.26-.57-9.75.73-13.34s3.4-4.9,6-4.14a7.42,7.42,0,0,1,4.54,5.73,21.2,21.2,0,0,1-.48,8.67,19.13,19.13,0,0,1-3.2,6.78,3.75,3.75,0,0,0-.13,4.88,6.29,6.29,0,0,0,5.1,2.64c2.29.07,4.48-1.15,6.46-3.78,1.75-2.62,2.93-6.67,3.79-12.12a27.6,27.6,0,0,0-.91-12.41c3.15-2.62,5.28-2.5,5.28-6.73C425.14,234,431.52,214.11,414.53,227.28Zm-25,52.68a2.49,2.49,0,0,1-1,2.08,2.92,2.92,0,0,1-2.18.47,3.27,3.27,0,0,1-2.25-1.22,20.71,20.71,0,0,1-2.2-2.87,3.36,3.36,0,0,1-.41-2.4,3.69,3.69,0,0,1,1.37-2,3.17,3.17,0,0,1,2.41-.28,3.57,3.57,0,0,1,2,1.72,25,25,0,0,0,1.51,2.07A3.34,3.34,0,0,1,389.57,280Zm.91-32.88a2.88,2.88,0,0,1-1,2c-1.84,1.3-3.22,3.63-4.15,6.87a27.6,27.6,0,0,0-.77,10.47,3.21,3.21,0,0,1-.66,2.34,3.7,3.7,0,0,1-2.19,1.09h-.48a3.42,3.42,0,0,1-2-.64,2.68,2.68,0,0,1-1-1.82,35.55,35.55,0,0,1,1.21-13.78c1.31-4.39,3.2-7.8,5.9-10a2.9,2.9,0,0,1,2.3-.51,3.7,3.7,0,0,1,2.13,1.48A3.37,3.37,0,0,1,390.48,247.08Z" transform="translate(-111.07 -222.38)"/><path class="cls-2" d="M414.53,227.28c-5,2.89-5.06,4.8-10.6,10.14-11.78-3.09-21.36-6.45-26,2.05-4.89,8.7-5.27,23.19-3.6,31.69,1.55,8.7,5.79,14.64,12.72,20.57,5.76,5,9.23,10.82,10.4,16.37,1.29,5.75.92,10.32-1,13.74s-4.59,4.45-8.29,3.52c-3.1-1.27-4.73-2.87-5-5.42a12.48,12.48,0,0,1,1.88-7.51c1.39-2.48,3-3.9,4.82-4.48,2.43-.66,3.18-1.76,2.26-3.43s-1.3-5.68-3.8-6.77-6.29,2-8.61,3.83c-3.92,3.33-6.67,8.5-8.38,14.6s-1.48,10.94.68,14.59,6.63,4.87,13.79,6.56c16.9,3.37,28.38,3.46,33-12.93,3-10.2,1.4-22.53-3.26-30.69a8.71,8.71,0,0,0,1.12-4.31c0-3.85-2.35-6.76-5.25-7a4.22,4.22,0,0,0-3.17,1.06c-1.05-1.27-2.14-2.57-3.34-3.91a26.68,26.68,0,0,1-7-14.21c-.82-5.26-.57-9.75.73-13.34s3.4-4.9,6-4.14a7.42,7.42,0,0,1,4.54,5.73,21.2,21.2,0,0,1-.48,8.67,19.13,19.13,0,0,1-3.2,6.78,3.75,3.75,0,0,0-.13,4.88,6.29,6.29,0,0,0,5.1,2.64c2.29.07,4.48-1.15,6.46-3.78,1.75-2.62,2.93-6.67,3.79-12.12a27.6,27.6,0,0,0-.91-12.41c3.15-2.62,5.28-2.5,5.28-6.73C425.14,234,431.52,214.11,414.53,227.28Zm-25,52.68a2.49,2.49,0,0,1-1,2.08,2.92,2.92,0,0,1-2.18.47,3.27,3.27,0,0,1-2.25-1.22,20.71,20.71,0,0,1-2.2-2.87,3.36,3.36,0,0,1-.41-2.4,3.69,3.69,0,0,1,1.37-2,3.17,3.17,0,0,1,2.41-.28,3.57,3.57,0,0,1,2,1.72,25,25,0,0,0,1.51,2.07A3.34,3.34,0,0,1,389.57,280Zm.91-32.88a2.88,2.88,0,0,1-1,2c-1.84,1.3-3.22,3.63-4.15,6.87a27.6,27.6,0,0,0-.77,10.47,3.21,3.21,0,0,1-.66,2.34,3.7,3.7,0,0,1-2.19,1.09h-.48a3.42,3.42,0,0,1-2-.64,2.68,2.68,0,0,1-1-1.82,35.55,35.55,0,0,1,1.21-13.78c1.31-4.39,3.2-7.8,5.9-10a2.9,2.9,0,0,1,2.3-.51,3.7,3.7,0,0,1,2.13,1.48A3.37,3.37,0,0,1,390.48,247.08Z" transform="translate(-111.07 -222.38)"/><path class="cls-6" d="M682.93,264.55c0-12.17-4.74-11.24-11.67-10.67s-13.44.71-13.44,12.88a35.93,35.93,0,0,0,2.37,13.07,14,14,0,0,0-1,3.11c-1.39,6.88-1.17,18.11-4.78,29.67S644.08,332.24,640,341.06s-7.7,12.94-10.52,12.12c-2.58-.76-3.47-5.58-2.76-14.69s.08-19,2.15-29.93,6.17-19.92,7.82-27.37c.74-3,1.23-5.4,1.58-7.11.93-4.53-.23-8.17-3.57-10.94s-7-3.78-10.87-2.9-6.33,3.92-7.21,8.48c-.3,1.57-.84,3.73-1.52,6.64q-3.17,12.9-6.4,34t-.74,38c1.7,11.27,7.66,15.87,17.89,18.4,6.7,1.66,12.87-1.13,18.35-9.26-.33,1.58-.59,2.82-.77,3.73a11.43,11.43,0,0,0,3.5,11.38c3.3,3.11,6.82,4.48,10.77,4.18,4-.46,3.5-5.81,4.48-10.66.88-4.36,5.22-9.29,7.29-19.91s4.23-21.73,6.43-33.32,3.86-20.43,5-26.31c.56-3.05.44-5.43-.36-7.19A40.54,40.54,0,0,0,682.93,264.55ZM617.33,325a3.81,3.81,0,0,1-1.48,2.1,4.24,4.24,0,0,1-2.14.68,2.79,2.79,0,0,1-2.26-1,10.74,10.74,0,0,1-1-5.06,4.39,4.39,0,0,1,.93-2.51,4,4,0,0,1,2.28-1.53,2.75,2.75,0,0,1,2.26.55,2.68,2.68,0,0,1,.9,2.13c.07.86.07,1.47.12,1.84l.14.5A2.66,2.66,0,0,1,617.33,325Zm8.61-54.33c-.11.54-.22,1.08-.32,1.63-.94,3.44-2.12,8.78-3.75,15.82s-2.9,14.2-4,21.06a4,4,0,0,1-1.29,2.33,3.69,3.69,0,0,1-2.42.88h-.12a2.36,2.36,0,0,1-1.95-.83,2.55,2.55,0,0,1-.52-2.17c1-7.26,2.41-14.62,4.06-22s2.86-13,3.67-16.52l.45-1.65a3.27,3.27,0,0,1,3.87-2.38,3,3,0,0,1,1.93,1.41A3.45,3.45,0,0,1,625.94,270.63Z" transform="translate(-111.07 -222.38)"/><path class="cls-2" d="M682.93,264.55c0-12.17-4.74-11.24-11.67-10.67s-13.44.71-13.44,12.88a35.93,35.93,0,0,0,2.37,13.07,14,14,0,0,0-1,3.11c-1.39,6.88-1.17,18.11-4.78,29.67S644.08,332.24,640,341.06s-7.7,12.94-10.52,12.12c-2.58-.76-3.47-5.58-2.76-14.69s.08-19,2.15-29.93,6.17-19.92,7.82-27.37c.74-3,1.23-5.4,1.58-7.11.93-4.53-.23-8.17-3.57-10.94s-7-3.78-10.87-2.9-6.33,3.92-7.21,8.48c-.3,1.57-.84,3.73-1.52,6.64q-3.17,12.9-6.4,34t-.74,38c1.7,11.27,7.66,15.87,17.89,18.4,6.7,1.66,12.87-1.13,18.35-9.26-.33,1.58-.59,2.82-.77,3.73a11.43,11.43,0,0,0,3.5,11.38c3.3,3.11,6.82,4.48,10.77,4.18,4-.46,3.5-5.81,4.48-10.66.88-4.36,5.22-9.29,7.29-19.91s4.23-21.73,6.43-33.32,3.86-20.43,5-26.31c.56-3.05.44-5.43-.36-7.19A40.54,40.54,0,0,0,682.93,264.55ZM617.33,325a3.81,3.81,0,0,1-1.48,2.1,4.24,4.24,0,0,1-2.14.68,2.79,2.79,0,0,1-2.26-1,10.74,10.74,0,0,1-1-5.06,4.39,4.39,0,0,1,.93-2.51,4,4,0,0,1,2.28-1.53,2.75,2.75,0,0,1,2.26.55,2.68,2.68,0,0,1,.9,2.13c.07.86.07,1.47.12,1.84l.14.5A2.66,2.66,0,0,1,617.33,325Zm8.61-54.33c-.11.54-.22,1.08-.32,1.63-.94,3.44-2.12,8.78-3.75,15.82s-2.9,14.2-4,21.06a4,4,0,0,1-1.29,2.33,3.69,3.69,0,0,1-2.42.88h-.12a2.36,2.36,0,0,1-1.95-.83,2.55,2.55,0,0,1-.52-2.17c1-7.26,2.41-14.62,4.06-22s2.86-13,3.67-16.52l.45-1.65a3.27,3.27,0,0,1,3.87-2.38,3,3,0,0,1,1.93,1.41A3.45,3.45,0,0,1,625.94,270.63Z" transform="translate(-111.07 -222.38)"/><path class="cls-7" d="M182.45,350.91c-1.72-4.68-7.84-12.09-7.84-12.32,0-2.51-16.54-9.72-26-13.26a26.34,26.34,0,0,1-12.92-8.27c-3.58-4.05-1.69-5.82-2.88-9.9s-4.87-8.84-2.61-10.09c2.36-.87,4.59-.1,6.55,2a25.5,25.5,0,0,1,4.64,8.09,26.32,26.32,0,0,1,1.62,8.11c.13,2.38,1,3.82,2.72,4.55s7.19.3,8.95-.89-.9-2.92-.7-6c0-3-1.22-7-3.54-12.2a36.33,36.33,0,0,0-10.09-13c-4.23-3.42-9.09-3.67-14.5-.15a2.4,2.4,0,0,0-2.11-1.37c-1.63.09-3,2.39-3,5,0,.13,0,.24,0,.37a30.51,30.51,0,0,0-9.2,24c.49,9.13.26,18.1,6.9,23.27s16.31,7.42,24.85,9.08c7.08,1.28,12.66,4.2,16.68,8.3,4.18,4.18,6.57,8.24,7.26,12.55s-.51,7.28-3.73,8.9c-3,.89-5.26.2-7-1.93a15.21,15.21,0,0,1-2.85-7.76c-.36-3,0-5.18,1-6.82,1.33-2.12,1.2-3.63-.4-4.55a8,8,0,0,0-6-.77,7.13,7.13,0,0,0-5.16,4.55c-1.47,4.47-1.34,9.44.35,15.08a29.41,29.41,0,0,0,3.38,7.22,7.12,7.12,0,0,0-1.48,4.73c0,3.46,1.66,6.57,3.71,6.93s3.62-2.06,3.7-5.4c4.28,3.17,9.57,3.63,15.86.35C182.51,379.15,187.12,363.43,182.45,350.91Zm-55.87-19.14-.4.27a3.47,3.47,0,0,1-2.1.6,3.05,3.05,0,0,1-2-.86,30.73,30.73,0,0,1-6.86-10.69,20.3,20.3,0,0,1-1-11.35,4.75,4.75,0,0,1,1.43-2.33,3.36,3.36,0,0,1,2.4-.79,2.3,2.3,0,0,1,2,1.12,3.3,3.3,0,0,1,.46,2.37,14.61,14.61,0,0,0,.88,8.37,28.28,28.28,0,0,0,5.44,8.77,3.34,3.34,0,0,1,.83,2.34A3.52,3.52,0,0,1,126.58,331.77Zm12.29,6.48a2.55,2.55,0,0,1-1.34,1.7,2.75,2.75,0,0,1-2.42.17,21.84,21.84,0,0,1-3.42-1.35,3.71,3.71,0,0,1-1.73-1.83,3.81,3.81,0,0,1,0-2.43,3.17,3.17,0,0,1,1.73-1.62,3,3,0,0,1,2.49.28c.73.31,1.46.62,2.29.89a3.41,3.41,0,0,1,2,1.69A3.23,3.23,0,0,1,138.87,338.25Z" transform="translate(-111.07 -222.38)"/><path class="cls-2" d="M182.45,350.91c-1.72-4.68-7.84-12.09-7.84-12.32,0-2.51-16.54-9.72-26-13.26a26.34,26.34,0,0,1-12.92-8.27c-3.58-4.05-1.69-5.82-2.88-9.9s-4.87-8.84-2.61-10.09c2.36-.87,4.59-.1,6.55,2a25.5,25.5,0,0,1,4.64,8.09,26.32,26.32,0,0,1,1.62,8.11c.13,2.38,1,3.82,2.72,4.55s7.19.3,8.95-.89-.9-2.92-.7-6c0-3-1.22-7-3.54-12.2a36.33,36.33,0,0,0-10.09-13c-4.23-3.42-9.09-3.67-14.5-.15a2.4,2.4,0,0,0-2.11-1.37c-1.63.09-3,2.39-3,5,0,.13,0,.24,0,.37a30.51,30.51,0,0,0-9.2,24c.49,9.13.26,18.1,6.9,23.27s16.31,7.42,24.85,9.08c7.08,1.28,12.66,4.2,16.68,8.3,4.18,4.18,6.57,8.24,7.26,12.55s-.51,7.28-3.73,8.9c-3,.89-5.26.2-7-1.93a15.21,15.21,0,0,1-2.85-7.76c-.36-3,0-5.18,1-6.82,1.33-2.12,1.2-3.63-.4-4.55a8,8,0,0,0-6-.77,7.13,7.13,0,0,0-5.16,4.55c-1.47,4.47-1.34,9.44.35,15.08a29.41,29.41,0,0,0,3.38,7.22,7.12,7.12,0,0,0-1.48,4.73c0,3.46,1.66,6.57,3.71,6.93s3.62-2.06,3.7-5.4c4.28,3.17,9.57,3.63,15.86.35C182.51,379.15,187.12,363.43,182.45,350.91Zm-55.87-19.14-.4.27a3.47,3.47,0,0,1-2.1.6,3.05,3.05,0,0,1-2-.86,30.73,30.73,0,0,1-6.86-10.69,20.3,20.3,0,0,1-1-11.35,4.75,4.75,0,0,1,1.43-2.33,3.36,3.36,0,0,1,2.4-.79,2.3,2.3,0,0,1,2,1.12,3.3,3.3,0,0,1,.46,2.37,14.61,14.61,0,0,0,.88,8.37,28.28,28.28,0,0,0,5.44,8.77,3.34,3.34,0,0,1,.83,2.34A3.52,3.52,0,0,1,126.58,331.77Zm12.29,6.48a2.55,2.55,0,0,1-1.34,1.7,2.75,2.75,0,0,1-2.42.17,21.84,21.84,0,0,1-3.42-1.35,3.71,3.71,0,0,1-1.73-1.83,3.81,3.81,0,0,1,0-2.43,3.17,3.17,0,0,1,1.73-1.62,3,3,0,0,1,2.49.28c.73.31,1.46.62,2.29.89a3.41,3.41,0,0,1,2,1.69A3.23,3.23,0,0,1,138.87,338.25Z" transform="translate(-111.07 -222.38)"/><path class="cls-8" d="M214.92,351.54a5.14,5.14,0,0,0-1.12.39c-1.05-2.87-.82-8.15-3-14.32-2.44-6.86-5.17-12-8.08-20.76,6-1.94,9.49-8.49,13.69-15.33,4.32-7.23,4.79-15.38,1.33-23.95a17.49,17.49,0,0,0-7.91-9.32,45.52,45.52,0,0,0-11.53-4.84c-.61-.18-1.22-.32-1.83-.48v0c0-5.92-.17-8.08-6.09-9.5-5.91-1.74-15.32-.3-15.32,5.92a10.69,10.69,0,0,0,.68,3.64c-1.59.57-2.42,1-2.42,1a12.72,12.72,0,0,0-6.3,6.49c-1.52,3-4.07,7.58-2.77,10.71,2.21,5.14,7.63,12,11.37,22.87,3.74,10.65,8.82,21.35,12.32,32.23s4.36,18.36,5.54,22c1.66,5.12,4.46,8.44,8.52,9.46a9.6,9.6,0,0,0,8.22-1.59c1.06,2.19,2.78,3.53,4.73,3.11,3.22-.66,5.84-6,5.84-10.83S218.14,350.88,214.92,351.54Zm-36.53-47.82c-3.14-9.23-6.27-18.09-9.41-26.34a3.13,3.13,0,0,1,.16-2.5A3.71,3.71,0,0,1,170.9,273a2.78,2.78,0,0,1,2.43-.25,3.17,3.17,0,0,1,1.65,1.75c3.13,8.93,6.27,18.31,9.4,27.9a3.12,3.12,0,0,1-.15,2.43,2.48,2.48,0,0,1-1.84,1.35,3.3,3.3,0,0,1-2.35-.5A3.22,3.22,0,0,1,178.39,303.72Zm10.17,14.48a2.31,2.31,0,0,1-1.84,1.25,3.45,3.45,0,0,1-2.35-.67,3.4,3.4,0,0,1-1.65-2.11c-.49-1.48-1-2.94-1.46-4.4a2.63,2.63,0,0,1,.16-2.44,2.37,2.37,0,0,1,1.72-1.36,3.17,3.17,0,0,1,2.46.61,4,4,0,0,1,1.66,2.18c.48,1.5,1,3,1.45,4.51A2.91,2.91,0,0,1,188.56,318.2Zm7.93-17.27c-4.13-12.82-7-21.81-8.58-26.67a29.33,29.33,0,0,1,11.4,1.81,11.56,11.56,0,0,1,7.44,7.79c1.45,4.23.93,7.87-1.42,10.79A19.29,19.29,0,0,1,196.49,300.93Z" transform="translate(-111.07 -222.38)"/><path class="cls-2" d="M214.92,351.54a5.14,5.14,0,0,0-1.12.39c-1.05-2.87-.82-8.15-3-14.32-2.44-6.86-5.17-12-8.08-20.76,6-1.94,9.49-8.49,13.69-15.33,4.32-7.23,4.79-15.38,1.33-23.95a17.49,17.49,0,0,0-7.91-9.32,45.52,45.52,0,0,0-11.53-4.84c-.61-.18-1.22-.32-1.83-.48v0c0-5.92-.17-8.08-6.09-9.5-5.91-1.74-15.32-.3-15.32,5.92a10.69,10.69,0,0,0,.68,3.64c-1.59.57-2.42,1-2.42,1a12.72,12.72,0,0,0-6.3,6.49c-1.52,3-4.07,7.58-2.77,10.71,2.21,5.14,7.63,12,11.37,22.87,3.74,10.65,8.82,21.35,12.32,32.23s4.36,18.36,5.54,22c1.66,5.12,4.46,8.44,8.52,9.46a9.6,9.6,0,0,0,8.22-1.59c1.06,2.19,2.78,3.53,4.73,3.11,3.22-.66,5.84-6,5.84-10.83S218.14,350.88,214.92,351.54Zm-36.53-47.82c-3.14-9.23-6.27-18.09-9.41-26.34a3.13,3.13,0,0,1,.16-2.5A3.71,3.71,0,0,1,170.9,273a2.78,2.78,0,0,1,2.43-.25,3.17,3.17,0,0,1,1.65,1.75c3.13,8.93,6.27,18.31,9.4,27.9a3.12,3.12,0,0,1-.15,2.43,2.48,2.48,0,0,1-1.84,1.35,3.3,3.3,0,0,1-2.35-.5A3.22,3.22,0,0,1,178.39,303.72Zm10.17,14.48a2.31,2.31,0,0,1-1.84,1.25,3.45,3.45,0,0,1-2.35-.67,3.4,3.4,0,0,1-1.65-2.11c-.49-1.48-1-2.94-1.46-4.4a2.63,2.63,0,0,1,.16-2.44,2.37,2.37,0,0,1,1.72-1.36,3.17,3.17,0,0,1,2.46.61,4,4,0,0,1,1.66,2.18c.48,1.5,1,3,1.45,4.51A2.91,2.91,0,0,1,188.56,318.2Zm7.93-17.27c-4.13-12.82-7-21.81-8.58-26.67a29.33,29.33,0,0,1,11.4,1.81,11.56,11.56,0,0,1,7.44,7.79c1.45,4.23.93,7.87-1.42,10.79A19.29,19.29,0,0,1,196.49,300.93Z" transform="translate(-111.07 -222.38)"/></svg>